<?xml version="1.0" encoding="utf-8"?>
<!-- Generator: Adobe Illustrator 16.0.0, SVG Export Plug-In . SVG Version: 6.00 Build 0)  -->
<!DOCTYPE svg PUBLIC "-//W3C//DTD SVG 1.1//EN" "http://www.w3.org/Graphics/SVG/1.1/DTD/svg11.dtd">
<svg version="1.1" id="Слой_1" xmlns="http://www.w3.org/2000/svg" xmlns:xlink="http://www.w3.org/1999/xlink" x="0px" y="0px"
	 width="512px" height="512px" viewBox="0 0 512 512" enable-background="new 0 0 512 512" xml:space="preserve">
<path id="V_kontakte_1_" fill="#D73351" d="M260.96,285.213c2.593,0,3.659-1.729,3.624-3.894c-0.131-8.169,3.047-12.566,8.788-6.838
	c6.35,6.344,7.662,10.731,15.375,10.731c2.927,0,10.806,0,13.649,0c10.74,0,1.169-10.763-6.396-17.774
	c-7.194-6.67-7.535-6.829-1.338-14.852c7.69-9.962,17.747-22.8,8.851-22.8c-1.741,0-0.497,0-16.985,0
	c-3.297,0-3.537,1.921-4.705,4.688c-4.244,9.991-12.313,22.947-15.379,20.968c-3.209-2.068-1.74-9.087-1.493-21.246
	c0.065-3.213,0.046-5.422-4.866-6.56c-13.424-3.113-25.059,3.006-20.306,3.888c6.7,1.25,6.057,14.569,4.497,20.822
	c-2.722,10.888-12.953-8.619-17.218-18.338c-1.029-2.337-1.341-4.221-5.016-4.221c-2.013,0-10.9,0-13.888,0
	c-2.675,0-3.987,1.225-3.053,3.709c0.934,2.481,11.681,26.486,24.387,40.18C241.247,286.351,252.872,285.213,260.96,285.213z"/>
</svg>
